<svg width="10" height="9" viewBox="0 0 10 9" fill="none" xmlns="http://www.w3.org/2000/svg">
<path d="M2.80599 4.364H2.18299C2.10555 4.364 2.03128 4.39477 1.97652 4.44953C1.92176 4.50429 1.89099 4.57856 1.89099 4.65601C1.89099 4.73345 1.92176 4.80771 1.97652 4.86247C2.03128 4.91724 2.10555 4.948 2.18299 4.948H2.80599C2.88344 4.948 2.95771 4.91724 3.01247 4.86247C3.06723 4.80771 3.09799 4.73345 3.09799 4.65601C3.09799 4.57856 3.06723 4.50429 3.01247 4.44953C2.95771 4.39477 2.88344 4.364 2.80599 4.364Z" fill="#E36DA6"/>
<path d="M2.80599 5.61H2.18299C2.10555 5.61 2.03128 5.64075 1.97652 5.69551C1.92176 5.75027 1.89099 5.82455 1.89099 5.90199C1.89099 5.97944 1.92176 6.05371 1.97652 6.10847C2.03128 6.16324 2.10555 6.19402 2.18299 6.19402H2.80599C2.88344 6.19402 2.95771 6.16324 3.01247 6.10847C3.06723 6.05371 3.09799 5.97944 3.09799 5.90199C3.09799 5.82455 3.06723 5.75027 3.01247 5.69551C2.95771 5.64075 2.88344 5.61 2.80599 5.61Z" fill="#E36DA6"/>
<path d="M2.80599 6.857H2.18299C2.10555 6.857 2.03128 6.88775 1.97652 6.94251C1.92176 6.99727 1.89099 7.07155 1.89099 7.14899C1.89099 7.22644 1.92176 7.30071 1.97652 7.35547C2.03128 7.41024 2.10555 7.44102 2.18299 7.44102H2.80599C2.88344 7.44102 2.95771 7.41024 3.01247 7.35547C3.06723 7.30071 3.09799 7.22644 3.09799 7.14899C3.09799 7.07155 3.06723 6.99727 3.01247 6.94251C2.95771 6.88775 2.88344 6.857 2.80599 6.857Z" fill="#E36DA6"/>
<path d="M5.29903 4.364H4.67603C4.59858 4.364 4.5243 4.39477 4.46954 4.44953C4.41478 4.50429 4.38403 4.57856 4.38403 4.65601C4.38403 4.73345 4.41478 4.80771 4.46954 4.86247C4.5243 4.91724 4.59858 4.948 4.67603 4.948H5.29903C5.37647 4.948 5.45075 4.91724 5.50551 4.86247C5.56027 4.80771 5.59102 4.73345 5.59102 4.65601C5.59102 4.57856 5.56027 4.50429 5.50551 4.44953C5.45075 4.39477 5.37647 4.364 5.29903 4.364Z" fill="#E36DA6"/>
<path d="M5.29903 5.61H4.67603C4.59858 5.61 4.5243 5.64075 4.46954 5.69551C4.41478 5.75027 4.38403 5.82455 4.38403 5.90199C4.38403 5.97944 4.41478 6.05371 4.46954 6.10847C4.5243 6.16324 4.59858 6.19402 4.67603 6.19402H5.29903C5.37647 6.19402 5.45075 6.16324 5.50551 6.10847C5.56027 6.05371 5.59102 5.97944 5.59102 5.90199C5.59102 5.82455 5.56027 5.75027 5.50551 5.69551C5.45075 5.64075 5.37647 5.61 5.29903 5.61Z" fill="#E36DA6"/>
<path d="M5.29903 6.857H4.67603C4.59858 6.857 4.5243 6.88775 4.46954 6.94251C4.41478 6.99727 4.38403 7.07155 4.38403 7.14899C4.38403 7.22644 4.41478 7.30071 4.46954 7.35547C4.5243 7.41024 4.59858 7.44102 4.67603 7.44102H5.29903C5.37647 7.44102 5.45075 7.41024 5.50551 7.35547C5.56027 7.30071 5.59102 7.22644 5.59102 7.14899C5.59102 7.07155 5.56027 6.99727 5.50551 6.94251C5.45075 6.88775 5.37647 6.857 5.29903 6.857Z" fill="#E36DA6"/>
<path d="M7.79303 4.364H7.17004C7.0926 4.364 7.01832 4.39477 6.96356 4.44953C6.9088 4.50429 6.87805 4.57856 6.87805 4.65601C6.87805 4.73345 6.9088 4.80771 6.96356 4.86247C7.01832 4.91724 7.0926 4.948 7.17004 4.948H7.79303C7.87047 4.948 7.94475 4.91724 7.99951 4.86247C8.05427 4.80771 8.08505 4.73345 8.08505 4.65601C8.08505 4.57856 8.05427 4.50429 7.99951 4.44953C7.94475 4.39477 7.87047 4.364 7.79303 4.364Z" fill="#E36DA6"/>
<path d="M7.79303 5.61H7.17004C7.0926 5.61 7.01832 5.64075 6.96356 5.69551C6.9088 5.75027 6.87805 5.82455 6.87805 5.90199C6.87805 5.97944 6.9088 6.05371 6.96356 6.10847C7.01832 6.16324 7.0926 6.19402 7.17004 6.19402H7.79303C7.87047 6.19402 7.94475 6.16324 7.99951 6.10847C8.05427 6.05371 8.08505 5.97944 8.08505 5.90199C8.08505 5.82455 8.05427 5.75027 7.99951 5.69551C7.94475 5.64075 7.87047 5.61 7.79303 5.61Z" fill="#E36DA6"/>
<path d="M7.79303 6.857H7.17004C7.0926 6.857 7.01832 6.88775 6.96356 6.94251C6.9088 6.99727 6.87805 7.07155 6.87805 7.14899C6.87805 7.22644 6.9088 7.30071 6.96356 7.35547C7.01832 7.41024 7.0926 7.44102 7.17004 7.44102H7.79303C7.87047 7.44102 7.94475 7.41024 7.99951 7.35547C8.05427 7.30071 8.08505 7.22644 8.08505 7.14899C8.08505 7.07155 8.05427 6.99727 7.99951 6.94251C7.94475 6.88775 7.87047 6.857 7.79303 6.857Z" fill="#E36DA6"/>
<path d="M9.1 0.778999H8.4V0.292C8.4 0.253654 8.39245 0.215683 8.37777 0.180256C8.3631 0.144829 8.34159 0.11264 8.31448 0.0855255C8.28736 0.0584108 8.25517 0.0369007 8.21974 0.0222263C8.18432 0.00755196 8.14635 0 8.108 0C8.06965 0 8.03168 0.00755196 7.99626 0.0222263C7.96083 0.0369007 7.92864 0.0584108 7.90153 0.0855255C7.87441 0.11264 7.8529 0.144829 7.83823 0.180256C7.82355 0.215683 7.816 0.253654 7.816 0.292V0.778999H5.279V0.292C5.279 0.214557 5.24824 0.140286 5.19348 0.0855255C5.13871 0.0307649 5.06444 0 4.987 0C4.90956 0 4.83529 0.0307649 4.78052 0.0855255C4.72576 0.140286 4.695 0.214557 4.695 0.292V0.778999H2.162V0.292C2.162 0.214557 2.13124 0.140286 2.07648 0.0855255C2.02171 0.0307649 1.94744 0 1.87 0C1.79256 0 1.71829 0.0307649 1.66352 0.0855255C1.60876 0.140286 1.578 0.214557 1.578 0.292V0.778999H0.878C0.645313 0.778999 0.422142 0.871366 0.257514 1.03581C0.0928853 1.20025 0.000265019 1.42331 0 1.656L0 8.124C0.0005291 8.35634 0.0931288 8.579 0.257512 8.74319C0.421896 8.90739 0.644659 8.99974 0.877 9H9.1C9.33251 8.99973 9.55543 8.90725 9.71984 8.74284C9.88425 8.57843 9.97674 8.35551 9.977 8.123V1.656C9.97674 1.42349 9.88425 1.20057 9.71984 1.03616C9.55543 0.871747 9.33251 0.779264 9.1 0.778999ZM0.587 1.656C0.587264 1.57864 0.618112 1.50452 0.672816 1.44982C0.72752 1.39511 0.801638 1.36426 0.879 1.364H1.579V1.851C1.579 1.92844 1.60976 2.00272 1.66452 2.05748C1.71929 2.11224 1.79356 2.143 1.871 2.143C1.94844 2.143 2.02271 2.11224 2.07748 2.05748C2.13224 2.00272 2.163 1.92844 2.163 1.851V1.364H4.695V1.851C4.695 1.92844 4.72576 2.00272 4.78052 2.05748C4.83529 2.11224 4.90956 2.143 4.987 2.143C5.06444 2.143 5.13871 2.11224 5.19348 2.05748C5.24824 2.00272 5.279 1.92844 5.279 1.851V1.364H7.812V1.851C7.812 1.92844 7.84276 2.00272 7.89752 2.05748C7.95229 2.11224 8.02656 2.143 8.104 2.143C8.18144 2.143 8.25571 2.11224 8.31048 2.05748C8.36524 2.00272 8.396 1.92844 8.396 1.851V1.364H9.096C9.17336 1.36426 9.24748 1.39511 9.30218 1.44982C9.35689 1.50452 9.38774 1.57864 9.388 1.656V2.805H0.584L0.587 1.656ZM9.1 8.416H0.877C0.799638 8.41574 0.72552 8.38489 0.670816 8.33018C0.616112 8.27548 0.585264 8.20136 0.585 8.124V3.39H9.39V8.124C9.38974 8.20102 9.35917 8.27484 9.30489 8.32948C9.25062 8.38413 9.17702 8.41521 9.1 8.416Z" fill="#E36DA6"/>
</svg>
