<svg width="8" height="10" viewBox="0 0 8 10" fill="none" xmlns="http://www.w3.org/2000/svg">
<path d="M4.21196 3.4381e-06C3.60965 -0.000855527 3.01805 0.159251 2.49837 0.463756C1.9787 0.768261 1.54983 1.2061 1.25615 1.73197C0.962466 2.25784 0.814646 2.85264 0.827977 3.45481C0.841307 4.05698 1.0153 4.64465 1.33197 5.157L4.01896 9.48C4.04425 9.52063 4.07945 9.55415 4.12127 9.57742C4.16308 9.60069 4.21012 9.61293 4.25797 9.613C4.3062 9.61251 4.35349 9.59966 4.39534 9.57567C4.43718 9.55169 4.47217 9.51737 4.49697 9.476L7.11097 5.111C7.41671 4.59824 7.58118 4.01364 7.58766 3.41668C7.59414 2.81972 7.44239 2.23169 7.14785 1.71241C6.85331 1.19313 6.42649 0.761131 5.9108 0.460346C5.39511 0.159562 4.80896 0.000728845 4.21196 3.4381e-06ZM6.63197 4.822L4.25396 8.791L1.81497 4.86C1.55207 4.43474 1.40705 3.94718 1.39478 3.44736C1.38251 2.94755 1.50344 2.45346 1.74515 2.01581C1.98687 1.57816 2.34067 1.21269 2.77026 0.956909C3.19985 0.701129 3.68974 0.564244 4.18969 0.5603C4.68965 0.556356 5.18165 0.685495 5.61522 0.934466C6.04878 1.18344 6.40831 1.54328 6.6569 1.97706C6.90549 2.41085 7.0342 2.90296 7.02982 3.40291C7.02544 3.90286 6.88813 4.39264 6.63197 4.822Z" fill="white"/>
</svg>
