<svg width="9" height="9" viewBox="0 0 9 9" fill="none" xmlns="http://www.w3.org/2000/svg">
<path d="M6.10295 5.295L4.84795 4.354V2.437C4.84795 2.34417 4.81108 2.25515 4.74544 2.18951C4.6798 2.12388 4.59078 2.087 4.49796 2.087C4.40513 2.087 4.3161 2.12388 4.25046 2.18951C4.18482 2.25515 4.14795 2.34417 4.14795 2.437V4.528C4.14783 4.58211 4.16034 4.6355 4.18446 4.68393C4.20859 4.73236 4.24368 4.7745 4.28694 4.807L5.68095 5.853C5.75521 5.90326 5.84596 5.92302 5.93439 5.90816C6.02282 5.89331 6.10214 5.84499 6.1559 5.77322C6.20966 5.70146 6.23373 5.61175 6.22313 5.52271C6.21253 5.43367 6.16806 5.35213 6.09895 5.295H6.10295Z" fill="#E36DA6"/>
<path d="M4.5 0C3.60999 0 2.73996 0.26392 1.99994 0.758387C1.25991 1.25285 0.683138 1.95566 0.342544 2.77792C0.00194979 3.60019 -0.0871652 4.50499 0.0864683 5.37791C0.260102 6.25082 0.688685 7.05264 1.31802 7.68198C1.94736 8.31132 2.74918 8.7399 3.6221 8.91353C4.49501 9.08717 5.39981 8.99805 6.22208 8.65746C7.04434 8.31686 7.74715 7.74009 8.24162 7.00007C8.73608 6.26005 9 5.39002 9 4.5C9 3.30653 8.5259 2.16193 7.68198 1.31802C6.83807 0.474106 5.69348 0 4.5 0V0ZM4.5 8.3C3.74843 8.3 3.01374 8.07713 2.38883 7.65958C1.76393 7.24203 1.27687 6.64856 0.98926 5.9542C0.701647 5.25984 0.626394 4.49578 0.773018 3.75866C0.919642 3.02153 1.28156 2.34443 1.813 1.81299C2.34444 1.28155 3.02153 0.91964 3.75866 0.773016C4.49579 0.626392 5.25984 0.701645 5.9542 0.989258C6.64856 1.27687 7.24204 1.76393 7.65959 2.38883C8.07714 3.01374 8.3 3.74843 8.3 4.5C8.29789 5.50717 7.89685 6.47249 7.18467 7.18467C6.47249 7.89685 5.50717 8.29789 4.5 8.3Z" fill="#E36DA6"/>
</svg>
