<svg width="10" height="10" viewBox="0 0 10 10" fill="none" xmlns="http://www.w3.org/2000/svg">
<path d="M4.58696 6.922C5.03342 6.92147 5.46143 6.74388 5.77713 6.42818C6.09283 6.11248 6.27042 5.68446 6.27095 5.238V2.146C6.27095 1.92485 6.22739 1.70587 6.14276 1.50156C6.05813 1.29725 5.9341 1.1116 5.77773 0.95523C5.62135 0.798856 5.43571 0.674814 5.2314 0.590185C5.02709 0.505556 4.80811 0.461998 4.58696 0.461998C4.36581 0.461998 4.14683 0.505556 3.94252 0.590185C3.73821 0.674814 3.55255 0.798856 3.39618 0.95523C3.23981 1.1116 3.11577 1.29725 3.03114 1.50156C2.94651 1.70587 2.90295 1.92485 2.90295 2.146V5.238C2.90348 5.68446 3.08108 6.11248 3.39677 6.42818C3.71247 6.74388 4.1405 6.92147 4.58696 6.922ZM4.58696 0.821998C4.93856 0.822263 5.27568 0.962051 5.52429 1.21067C5.77291 1.45928 5.91268 1.7964 5.91295 2.148V3.627H3.26096V2.146C3.26122 1.7944 3.40101 1.45728 3.64963 1.20867C3.89824 0.960051 4.23536 0.820263 4.58696 0.819998V0.821998ZM3.26096 3.987H5.91295V5.238C5.91295 5.58967 5.77326 5.92695 5.52458 6.17562C5.27591 6.42429 4.93864 6.564 4.58696 6.564C4.23528 6.564 3.89801 6.42429 3.64934 6.17562C3.40066 5.92695 3.26096 5.58967 3.26096 5.238V3.987Z" fill="white"/>
<path d="M4.15105 2.814H5.02304C5.07051 2.814 5.11604 2.79514 5.14961 2.76157C5.18318 2.728 5.20204 2.68247 5.20204 2.63499C5.20204 2.58752 5.18318 2.54199 5.14961 2.50842C5.11604 2.47485 5.07051 2.456 5.02304 2.456H4.15105C4.10357 2.456 4.05804 2.47485 4.02448 2.50842C3.99091 2.54199 3.97205 2.58752 3.97205 2.63499C3.97205 2.68247 3.99091 2.728 4.02448 2.76157C4.05804 2.79514 4.10357 2.814 4.15105 2.814Z" fill="white"/>
<path d="M6.88101 5.05801C6.83354 5.05801 6.78801 5.07687 6.75444 5.11044C6.72087 5.144 6.70201 5.18952 6.70201 5.23699C6.70201 5.79792 6.47918 6.3359 6.08254 6.73254C5.6859 7.12918 5.14795 7.35201 4.58701 7.35201C4.02608 7.35201 3.48812 7.12918 3.09148 6.73254C2.69484 6.3359 2.47202 5.79792 2.47202 5.23699C2.47202 5.18952 2.45316 5.144 2.41959 5.11044C2.38602 5.07687 2.34049 5.05801 2.29301 5.05801C2.24554 5.05801 2.20001 5.07687 2.16644 5.11044C2.13287 5.144 2.11401 5.18952 2.11401 5.23699C2.11474 5.80096 2.3079 6.3478 2.66156 6.7871C3.01522 7.2264 3.5082 7.53188 4.05901 7.65301V8.55901H4.04501C3.80632 8.55901 3.5774 8.65381 3.40862 8.82259C3.23983 8.99138 3.14501 9.22031 3.14501 9.45901C3.14501 9.50648 3.16387 9.55199 3.19744 9.58556C3.23101 9.61913 3.27654 9.63799 3.32401 9.63799H5.84401C5.89148 9.63799 5.93701 9.61913 5.97058 9.58556C6.00415 9.55199 6.02301 9.50648 6.02301 9.45901C6.02301 9.34082 5.99974 9.22378 5.95451 9.11459C5.90928 9.00539 5.84298 8.90617 5.75941 8.82259C5.67583 8.73902 5.57662 8.67272 5.46743 8.62749C5.35824 8.58227 5.2412 8.55901 5.12301 8.55901H5.10901V7.65301C5.65982 7.53188 6.1528 7.2264 6.50646 6.7871C6.86012 6.3478 7.05328 5.80096 7.05401 5.23699C7.05401 5.18952 7.03516 5.144 7.00159 5.11044C6.96802 5.07687 6.92249 5.05801 6.87502 5.05801H6.88101ZM5.63701 9.277H3.53701C3.57421 9.172 3.64303 9.08113 3.734 9.01684C3.82497 8.95255 3.93362 8.918 4.04501 8.91799H5.13001C5.24137 8.91815 5.34995 8.95272 5.4409 9.01699C5.53184 9.08126 5.60068 9.17208 5.63801 9.277H5.63701ZM4.75701 8.55901H4.41702V7.704C4.47302 7.704 4.53001 7.71001 4.58701 7.71001C4.64401 7.71001 4.70101 7.71 4.75701 7.704V8.55901Z" fill="white"/>
<path d="M0.896042 2.13499C0.848568 2.13499 0.803039 2.15385 0.76947 2.18742C0.735901 2.22099 0.717041 2.26652 0.717041 2.314V4.063C0.717041 4.0865 0.721672 4.10978 0.730667 4.1315C0.739663 4.15322 0.752849 4.17295 0.76947 4.18957C0.786092 4.20619 0.805824 4.21938 0.827541 4.22837C0.849259 4.23737 0.872535 4.242 0.896042 4.242C0.919548 4.242 0.942825 4.23737 0.964542 4.22837C0.98626 4.21938 1.00599 4.20619 1.02261 4.18957C1.03924 4.17295 1.05242 4.15322 1.06142 4.1315C1.07041 4.10978 1.07504 4.0865 1.07504 4.063V2.314C1.07504 2.26652 1.05618 2.22099 1.02261 2.18742C0.989045 2.15385 0.943516 2.13499 0.896042 2.13499Z" fill="white"/>
<path d="M2.32903 3.795C2.3765 3.795 2.42203 3.77614 2.4556 3.74257C2.48917 3.709 2.50803 3.66347 2.50803 3.616V2.76299C2.50803 2.71552 2.48917 2.66999 2.4556 2.63642C2.42203 2.60285 2.3765 2.58399 2.32903 2.58399C2.28155 2.58399 2.23602 2.60285 2.20245 2.63642C2.16888 2.66999 2.15002 2.71552 2.15002 2.76299V3.616C2.15002 3.6395 2.15465 3.66278 2.16365 3.68449C2.17265 3.70621 2.18583 3.72595 2.20245 3.74257C2.21908 3.75919 2.2388 3.77238 2.26052 3.78137C2.28224 3.79037 2.30552 3.795 2.32903 3.795Z" fill="white"/>
<path d="M0.179 1.43C0.131526 1.43 0.0859969 1.44886 0.0524279 1.48243C0.0188589 1.516 0 1.56153 0 1.609L0 4.589C7.07414e-10 4.63647 0.0188589 4.682 0.0524279 4.71557C0.0859969 4.74914 0.131526 4.768 0.179 4.768C0.226474 4.768 0.272003 4.74914 0.305572 4.71557C0.339141 4.682 0.358 4.63647 0.358 4.589V1.609C0.358 1.56153 0.339141 1.516 0.305572 1.48243C0.272003 1.44886 0.226474 1.43 0.179 1.43Z" fill="white"/>
<path d="M1.61205 1.954C1.58812 1.95399 1.56442 1.95878 1.54237 1.96809C1.52033 1.97739 1.50037 1.99103 1.48368 2.00819C1.46699 2.02534 1.45391 2.04566 1.44521 2.06796C1.43652 2.09026 1.43238 2.11408 1.43305 2.138V4.56C1.43305 4.60747 1.45191 4.653 1.48548 4.68657C1.51905 4.72014 1.56458 4.739 1.61205 4.739C1.65953 4.739 1.70506 4.72014 1.73863 4.68657C1.77219 4.653 1.79105 4.60747 1.79105 4.56V2.138C1.79172 2.11408 1.78759 2.09026 1.77889 2.06796C1.7702 2.04566 1.75712 2.02534 1.74043 2.00819C1.72374 1.99103 1.70378 1.97739 1.68173 1.96809C1.65968 1.95878 1.63599 1.95399 1.61205 1.954Z" fill="white"/>
<path d="M8.27798 2.13499C8.23051 2.13499 8.185 2.15385 8.15143 2.18742C8.11786 2.22099 8.099 2.26652 8.099 2.314V4.063C8.099 4.11047 8.11786 4.156 8.15143 4.18957C8.185 4.22314 8.23051 4.242 8.27798 4.242C8.32546 4.242 8.371 4.22314 8.40457 4.18957C8.43814 4.156 8.457 4.11047 8.457 4.063V2.314C8.457 2.26652 8.43814 2.22099 8.40457 2.18742C8.371 2.15385 8.32546 2.13499 8.27798 2.13499Z" fill="white"/>
<path d="M6.84402 3.795C6.8915 3.795 6.93704 3.77614 6.97061 3.74257C7.00418 3.709 7.02304 3.66347 7.02304 3.616V2.76299C7.02304 2.71552 7.00418 2.66999 6.97061 2.63642C6.93704 2.60285 6.8915 2.58399 6.84402 2.58399C6.79655 2.58399 6.75104 2.60285 6.71747 2.63642C6.6839 2.66999 6.66504 2.71552 6.66504 2.76299V3.616C6.66504 3.6395 6.66965 3.66278 6.67865 3.68449C6.68765 3.70621 6.70085 3.72595 6.71747 3.74257C6.73409 3.75919 6.75383 3.77238 6.77554 3.78137C6.79726 3.79037 6.82052 3.795 6.84402 3.795Z" fill="white"/>
<path d="M8.99393 1.43C8.94645 1.43 8.90094 1.44886 8.86737 1.48243C8.8338 1.516 8.81494 1.56153 8.81494 1.609V4.589C8.81494 4.63647 8.8338 4.682 8.86737 4.71557C8.90094 4.74914 8.94645 4.768 8.99393 4.768C9.0414 4.768 9.08694 4.74914 9.12051 4.71557C9.15408 4.682 9.17294 4.63647 9.17294 4.589V1.609C9.17294 1.56153 9.15408 1.516 9.12051 1.48243C9.08694 1.44886 9.0414 1.43 8.99393 1.43Z" fill="white"/>
<path d="M7.56094 4.37701C7.51954 4.3772 7.47951 4.39175 7.44763 4.41816C7.41574 4.44457 7.394 4.48122 7.3861 4.52186C7.37821 4.5625 7.38462 4.60462 7.40429 4.64105C7.42396 4.67748 7.45567 4.70597 7.49398 4.72166C7.5323 4.73735 7.57486 4.73926 7.61444 4.72709C7.65401 4.71492 7.68815 4.68939 7.71102 4.65488C7.7339 4.62038 7.7441 4.57901 7.73989 4.53782C7.73569 4.49663 7.71733 4.45817 7.68795 4.42899C7.65415 4.39557 7.60848 4.37689 7.56094 4.37701Z" fill="white"/>
<path d="M7.56101 1.954C7.53708 1.95399 7.51339 1.95878 7.49134 1.96809C7.46929 1.97739 7.44935 1.99103 7.43266 2.00819C7.41597 2.02534 7.4029 2.04566 7.3942 2.06796C7.38551 2.09026 7.38136 2.11408 7.38203 2.138V3.799C7.38203 3.84648 7.40089 3.89201 7.43446 3.92558C7.46803 3.95914 7.51354 3.978 7.56101 3.978C7.60849 3.978 7.65403 3.95914 7.6876 3.92558C7.72117 3.89201 7.74003 3.84648 7.74003 3.799V2.138C7.7407 2.11408 7.73655 2.09026 7.72785 2.06796C7.71916 2.04566 7.70609 2.02534 7.6894 2.00819C7.67271 1.99103 7.65277 1.97739 7.63072 1.96809C7.60867 1.95878 7.58495 1.95399 7.56101 1.954Z" fill="white"/>
<path d="M4.58696 6.169C4.8338 6.16873 5.07044 6.07056 5.24498 5.89602C5.41952 5.72148 5.51769 5.48483 5.51796 5.238C5.51796 5.19053 5.4991 5.14501 5.46553 5.11144C5.43196 5.07787 5.38643 5.05901 5.33896 5.05901C5.29149 5.05901 5.24596 5.07787 5.21239 5.11144C5.17882 5.14501 5.15996 5.19053 5.15996 5.238C5.15969 5.38989 5.09924 5.53547 4.99184 5.64288C4.88444 5.75028 4.73885 5.81073 4.58696 5.811C4.53949 5.811 4.49396 5.82986 4.46039 5.86343C4.42682 5.897 4.40796 5.94254 4.40796 5.99001C4.40796 6.03749 4.42682 6.083 4.46039 6.11657C4.49396 6.15014 4.53949 6.169 4.58696 6.169Z" fill="white"/>
<path d="M5.33902 4.79799C5.3804 4.79802 5.42052 4.78371 5.45254 4.7575C5.48457 4.73128 5.5065 4.69478 5.51465 4.65421C5.52279 4.61363 5.51662 4.5715 5.49719 4.53496C5.47776 4.49842 5.44627 4.46974 5.40808 4.4538C5.36989 4.43786 5.32736 4.43565 5.28772 4.44754C5.24808 4.45943 5.21379 4.48469 5.19067 4.51902C5.16756 4.55334 5.15706 4.59462 5.16095 4.63582C5.16484 4.67702 5.18287 4.71559 5.21201 4.74498C5.24565 4.77877 5.29134 4.79784 5.33902 4.79799Z" fill="white"/>
</svg>
