<svg width="10" height="10" viewBox="0 0 10 10" fill="none" xmlns="http://www.w3.org/2000/svg">
<path d="M9.56205 4.214C9.54588 4.16429 9.51616 4.12008 9.47623 4.08634C9.43631 4.0526 9.38776 4.03066 9.33605 4.023L6.36705 3.591L5.04005 0.900998C5.01646 0.855016 4.98063 0.816434 4.93653 0.789494C4.89242 0.762553 4.84174 0.748299 4.79005 0.748299C4.73837 0.748299 4.68769 0.762553 4.64358 0.789494C4.59947 0.816434 4.56365 0.855016 4.54005 0.900998L3.20905 3.591L0.240054 4.023C0.188288 4.03069 0.139699 4.05269 0.0997622 4.08651C0.0598253 4.12034 0.0301276 4.16464 0.0140151 4.21443C-0.00209737 4.26423 -0.0039843 4.31753 0.00856693 4.36834C0.0211182 4.41914 0.0476087 4.46544 0.0850539 4.502L2.23305 6.596L1.72605 9.551C1.71643 9.60287 1.7216 9.65639 1.74098 9.70546C1.76035 9.75453 1.79315 9.79714 1.83561 9.82844C1.87808 9.85974 1.92849 9.87846 1.98109 9.88245C2.03369 9.88644 2.08636 9.87554 2.13305 9.851L4.78805 8.451L7.44305 9.851C7.48975 9.87554 7.54241 9.88644 7.59501 9.88245C7.64762 9.87846 7.69803 9.85974 7.74049 9.82844C7.78296 9.79714 7.81575 9.75453 7.83513 9.70546C7.8545 9.65639 7.85968 9.60287 7.85005 9.551L7.34305 6.594L9.49105 4.501C9.52839 4.46448 9.55481 4.41829 9.56735 4.36759C9.57989 4.3169 9.57806 4.26371 9.56205 4.214ZM6.84605 6.296C6.81344 6.32766 6.78902 6.36678 6.7749 6.40999C6.76079 6.4532 6.75741 6.49919 6.76505 6.544L7.20005 9.086L4.91805 7.886C4.87779 7.86489 4.83301 7.85386 4.78755 7.85386C4.74209 7.85386 4.69731 7.86489 4.65705 7.886L2.37405 9.086L2.81005 6.544C2.81761 6.49919 2.81419 6.45322 2.80008 6.41003C2.78597 6.36684 2.7616 6.32771 2.72905 6.296L0.882054 4.496L3.43405 4.125C3.47897 4.11843 3.52162 4.10109 3.55837 4.07444C3.59511 4.0478 3.62486 4.01265 3.64505 3.972L4.78605 1.659L5.92705 3.972C5.94725 4.01265 5.977 4.0478 6.01374 4.07444C6.05049 4.10109 6.09314 4.11843 6.13805 4.125L8.69005 4.496L6.84605 6.296Z" fill="white"/>
</svg>
